# xmcd CD database file
#
# Track frame offsets:
#	187
#	16602
#	33740
#	50105
#
# Disc length: 895 seconds
#
# Revision: 0
# Processed by: cddbd v1.5.1PL0 Copyright (c) Steve Scherf et al.
# Submitted via: CDex 1.50beta8
#
DISCID=2c037d04
DTITLE=荻野目洋子 - 恋のハレルヤ
DYEAR=1994
DGENRE=JPop
TTITLE0=恋のハレルヤ
TTITLE1=Sha-La-La
TTITLE2=恋のハレルヤ(オリジナルカラオケ)
TTITLE3=Sha-La-La (オリジナルカラオケ)
EXTD=YEAR: 1994/11/23
EXTT0=
EXTT1=
EXTT2=
EXTT3=
PLAYORDER=
